<svg width="18" height="18" viewBox="0 0 18 18" xmlns="http://www.w3.org/2000/svg">
  <path fill="#4285F4" d="M17.64 9.20455c0-.63864-.05727-1.25182-.16818-1.84091H9v3.48068h4.84364c-.20864 1.125-.84273 2.07818-1.77727 2.71136v2.25818h2.90864c1.70182-1.56682 2.68409-3.87409 2.68409-6.61Z"/>
  <path fill="#34A853" d="M9 18c2.43 0 4.47182-.805 5.96273-2.18182l-2.90864-2.25818c-.805.54273-1.84091.86818-3.05409.86818-2.34545 0-4.32955-1.58364-5.03591-3.71023H.957273v2.33318C2.43864 16.3018 5.48182 18 9 18Z"/>
  <path fill="#FBBC05" d="M3.96409 10.71a5.4 5.4 0 0 1 0-3.42V4.95682H.957273a9.008 9.008 0 0 0 0 8.08636L3.96409 10.71Z"/>
  <path fill="#EA4335" d="M9 3.57955c1.32136 0 2.50773.46364 3.44 1.34591l2.58136-2.58136C13.4627 1.04091 11.43 0 9 0 5.48182 0 2.43864 1.69818.957273 4.33364L3.96409 6.66682c.70636-2.12659 2.69045-3.71023 5.03591-3.71023Z"/>
</svg>