<?xml version="1.0" standalone="no"?>
<!DOCTYPE svg PUBLIC "-//W3C//DTD SVG 20010904//EN"
 "http://www.w3.org/TR/2001/REC-SVG-20010904/DTD/svg10.dtd">
<svg version="1.0" xmlns="http://www.w3.org/2000/svg"
 width="500.000000pt" height="500.000000pt" viewBox="0 0 500.000000 500.000000"
 preserveAspectRatio="xMidYMid meet">
<metadata>
Created by potrace 1.16, written by Peter Selinger 2001-2019
</metadata>
<g transform="translate(0.000000,500.000000) scale(0.100000,-0.100000)"
fill="#000000" stroke="none">
<path d="M3546 4393 c-82 -192 -72 -178 -103 -153 -76 60 -177 -17 -132 -102
14 -26 67 -48 102 -41 39 8 58 36 123 189 51 120 59 135 78 131 157 -36 251
-59 257 -63 6 -4 -64 -190 -76 -203 -2 -2 -16 6 -31 18 -57 45 -144 12 -144
-55 0 -52 36 -84 94 -84 35 0 48 5 64 25 23 29 176 384 169 392 -5 4 -323 83
-338 83 -3 0 -31 -62 -63 -137z"/>
<path d="M2515 4389 c-34 -14 -62 -18 -88 -14 -112 16 -211 -69 -283 -245 -72
-178 -108 -471 -85 -700 12 -117 61 -370 81 -415 5 -11 23 -65 41 -120 64
-202 226 -465 333 -542 75 -55 152 -83 187 -71 21 7 41 6 76 -5 123 -39 201
-28 258 34 20 22 43 56 53 75 11 25 31 44 63 60 91 46 146 142 158 279 7 66
13 88 40 127 56 82 65 114 66 223 0 81 -5 113 -24 167 -20 56 -23 81 -19 144
12 180 -21 290 -121 407 -39 45 -55 75 -75 140 -41 134 -116 220 -239 273 -32
14 -56 33 -74 60 -43 65 -75 95 -128 120 -64 30 -149 31 -220 3z m-75 -324
c-11 -64 -22 -96 -68 -210 -27 -65 -126 -206 -183 -260 -58 -55 -53 -44 34 70
96 125 160 262 203 435 22 90 32 66 14 -35z m385 -5 c-19 -45 -61 -121 -93
-168 -94 -140 -308 -338 -439 -406 -61 -31 -34 -1 55 62 107 75 307 277 378
382 29 41 68 108 89 148 20 40 39 71 41 69 3 -2 -11 -41 -31 -87z m314 -276
c-77 -83 -331 -251 -467 -310 -105 -45 -203 -83 -254 -98 -118 -34 -87 -12 77
54 214 87 507 251 610 344 47 41 70 48 34 10z m91 -464 c-326 -30 -646 -74
-770 -106 -62 -16 -89 -18 -74 -6 22 21 255 75 384 91 47 6 114 14 150 19 36
5 137 9 225 9 126 0 144 -2 85 -7z m-485 -261 c197 -38 407 -119 495 -190 30
-25 27 -24 -84 29 -48 23 -114 49 -145 58 -31 9 -60 20 -66 24 -28 20 -316 68
-459 76 -66 4 -116 11 -116 17 0 12 299 1 375 -14z m-283 -124 c170 -46 321
-131 454 -257 71 -68 173 -202 162 -214 -3 -3 -14 7 -25 22 -40 60 -202 218
-264 260 -102 66 -282 151 -373 176 -44 12 -85 25 -90 30 -18 15 42 8 136 -17z
m-112 -93 c60 -29 188 -143 240 -212 53 -71 116 -202 125 -260 6 -40 1 -34
-39 54 -25 55 -58 117 -73 140 -51 75 -175 196 -255 248 -107 71 -107 84 2 30z"/>
<path d="M4441 4153 c-7 -14 -98 -250 -161 -416 l-10 -29 -31 26 c-79 67 -183
34 -196 -62 -5 -35 -1 -44 28 -76 58 -64 153 -66 193 -4 26 40 218 550 212
564 -7 19 -23 18 -35 -3z"/>
<path d="M1977 3677 c-48 -78 -75 -115 -109 -152 -16 -16 -28 -33 -28 -37 0
-11 -171 -158 -251 -216 -83 -60 -159 -105 -269 -157 -110 -53 -137 -65 -149
-65 -20 0 -31 -39 -31 -106 0 -53 5 -76 24 -108 40 -68 55 -72 198 -50 68 10
193 20 278 22 212 5 342 -18 486 -85 65 -30 94 -39 94 -29 0 2 -13 33 -28 68
-59 130 -135 405 -152 548 -6 52 -16 128 -22 168 -10 67 -6 188 8 240 11 40
-10 23 -49 -41z"/>
<path d="M3720 3368 c0 -13 16 -102 35 -198 19 -96 35 -183 35 -192 0 -15 -9
-18 -45 -18 -64 0 -110 -41 -110 -99 0 -50 26 -79 81 -91 48 -11 101 11 124
52 13 24 12 39 -9 155 -13 70 -26 134 -28 141 -10 24 53 12 101 -19 26 -17 49
-29 53 -26 3 3 -4 21 -16 40 -15 24 -39 42 -81 61 -50 21 -64 32 -76 62 -8 20
-13 38 -10 41 9 10 66 -9 101 -33 44 -29 55 -30 48 -4 -7 27 -69 80 -93 80
-11 0 -37 16 -59 35 -45 41 -51 43 -51 13z"/>
<path d="M1100 3063 c-57 -20 -103 -49 -115 -74 -23 -44 -19 -135 9 -195 33
-71 76 -100 143 -97 29 1 62 8 74 16 20 15 20 15 -16 43 -89 67 -116 184 -70
297 7 17 2 20 -25 10z"/>
<path d="M864 2883 c-55 -57 -78 -105 -99 -202 -32 -155 -18 -182 93 -184 79
-1 102 11 102 52 0 30 32 105 49 115 18 12 12 36 -18 75 -32 40 -51 97 -51
154 0 51 -18 48 -76 -10z"/>
<path d="M706 2488 c-18 -88 -8 -400 15 -453 24 -57 77 -111 139 -144 55 -29
66 -32 113 -26 93 13 125 36 70 50 -93 22 -181 91 -201 157 -26 85 -20 146 11
120 20 -17 178 -29 469 -37 l247 -6 17 33 18 33 6 -29 c7 -42 26 -43 62 -2 23
27 40 36 63 36 64 0 106 -61 85 -124 -18 -56 -62 -71 -118 -39 -16 9 -36 13
-46 10 -39 -15 40 -87 97 -87 66 0 112 49 123 133 17 121 -102 199 -202 131
-33 -23 -42 -25 -69 -15 -38 13 -143 30 -260 41 -211 21 -329 56 -340 103 -2
12 -6 42 -7 67 -3 39 -6 45 -23 42 -11 -2 -57 -6 -102 -9 -72 -4 -88 -2 -119
16 -43 26 -43 26 -48 -1z"/>
<path d="M1645 2143 c-79 -5 -135 -23 -135 -43 0 -22 23 -42 41 -36 8 3 59 10
114 16 72 7 103 15 112 27 9 12 10 20 2 30 -11 13 -25 13 -134 6z"/>
<path d="M1485 1978 c-33 -5 -94 -13 -135 -19 -156 -22 -290 -84 -290 -133 0
-106 279 -171 735 -171 251 0 391 14 541 53 145 38 202 108 134 165 -38 33
-158 71 -270 86 -47 7 -115 16 -152 22 -97 13 -199 11 -228 -6 -33 -19 -121
-19 -146 0 -21 16 -93 17 -189 3z m375 -98 c128 -17 164 -46 95 -79 -49 -24
-279 -28 -344 -6 -86 28 -63 65 55 84 68 12 107 12 194 1z"/>
<path d="M977 1833 c-120 -18 -373 -75 -384 -86 -21 -21 -3 -30 117 -61 92
-24 180 -46 556 -136 45 -11 94 -24 110 -31 16 -6 38 -13 49 -15 106 -21 175
-37 262 -60 l102 -28 308 78 c169 43 387 98 483 122 96 25 219 56 273 69 125
30 127 31 127 54 0 19 -6 22 -147 51 -27 5 -91 16 -143 25 -52 8 -109 17 -126
20 -30 5 -31 4 -37 -37 -4 -28 -14 -50 -29 -62 -104 -86 -423 -142 -760 -133
-447 11 -708 88 -708 208 0 17 -5 28 -12 28 -7 -1 -26 -4 -41 -6z"/>
<path d="M687 1646 c-3 -8 -7 -151 -8 -317 -1 -242 2 -304 12 -314 13 -11 101
-40 349 -115 58 -17 161 -49 230 -70 122 -38 343 -104 466 -139 60 -17 62 -17
130 4 38 12 119 37 179 55 61 17 142 42 180 55 39 12 86 27 105 33 41 12 238
73 427 134 120 38 163 44 137 19 -10 -10 -130 -52 -228 -81 -34 -10 -154 -48
-267 -84 -113 -36 -212 -66 -219 -66 -6 0 -26 -7 -43 -14 -18 -8 -72 -27 -122
-42 -145 -43 -169 -50 -189 -59 -21 -9 -65 1 -246 55 -321 98 -372 113 -475
146 -60 19 -118 39 -127 45 -10 5 -25 9 -34 9 -8 0 -48 11 -87 24 -40 14 -92
30 -117 36 -54 14 -70 26 -70 51 0 27 -25 23 -74 -10 -45 -31 -76 -70 -76 -95
0 -15 47 -36 170 -74 36 -12 198 -66 360 -121 462 -158 717 -241 739 -241 19
0 264 80 586 192 77 27 203 69 280 93 205 66 398 138 402 151 8 23 -114 134
-146 134 -18 0 -21 40 -21 305 0 150 -3 280 -6 289 -8 20 -32 19 -119 -4 -123
-34 -415 -110 -580 -151 -88 -21 -204 -50 -257 -64 -53 -14 -114 -25 -135 -25
-21 0 -156 30 -298 66 -320 81 -301 76 -470 118 -151 38 -277 70 -311 81 -14
4 -23 2 -27 -9z"/>
</g>
</svg>
